<?xml version="1.0" encoding="utf-8"?>
<!-- Generator: Adobe Illustrator 26.0.1, SVG Export Plug-In . SVG Version: 6.00 Build 0)  -->
<svg version="1.1" id="레이어_1" xmlns="http://www.w3.org/2000/svg" xmlns:xlink="http://www.w3.org/1999/xlink" x="0px"
	 y="0px" viewBox="0 0 200 40" style="enable-background:new 0 0 200 40;" xml:space="preserve">
<path d="M48.87,24.81h-9.48l-2.35,5.5h-2.77l8.75-19.94h2.34l8.75,19.94h-2.89L48.87,24.81z M47.85,22.44l-3.29-7.65l-0.44-1.27
	l-0.43,1.22l-3.29,7.7H47.85z"/>
<path d="M63.94,14.95c3,0,4.65,2.16,4.65,6.12v9.24h-2.52v-8.94c0-2.94-0.99-4.14-2.79-4.14c-2.7,0-4.26,2.76-4.26,5.43v7.65H56.5
	v-15h2.25l0.17,2.68C59.93,16,61.91,14.95,63.94,14.95L63.94,14.95z"/>
<path d="M72.32,8.95h2.98v3.31h-2.98V8.95z M72.58,15.31h2.52v15h-2.52V15.31z"/>
<path d="M96.19,14.95c3.31,0,4.59,2.56,4.59,6.06v9.3h-2.52v-9.12c0-2.76-0.93-3.96-2.73-3.96c-2.64,0-4.23,2.58-4.23,5v8.08h-2.52
	v-9.12c0-2.79-0.93-3.96-2.73-3.96c-2.7,0-4.23,2.7-4.23,5.31v7.77H79.3v-15h2.25l0.17,2.65c1.01-1.93,2.87-3.01,4.99-3.01
	c2.4,0,3.61,1.29,4.14,3.2C91.83,16.42,93.57,14.95,96.19,14.95L96.19,14.95z"/>
<path d="M117.07,28.36c0.12,0,0.3-0.02,0.42-0.04v2.1c-0.42,0.07-0.81,0.1-1.14,0.1c-1.62,0-2.64-0.63-2.85-2.08
	c-1.06,1.53-2.8,2.29-4.8,2.29c-2.82,0-4.83-1.44-4.83-4.5c0-1.5,0.54-2.64,1.92-3.42c1.45-0.82,3.71-1.11,7.59-1.15v-1.07
	c0-2.61-1.2-3.54-3.18-3.54c-2.11,0-3.1,1.01-3.41,3.12l-2.21-0.34c0.32-3.28,2.49-4.88,5.83-4.88c3.63,0,5.49,1.92,5.49,6.03v4.71
	C115.9,27.88,116.11,28.36,117.07,28.36L117.07,28.36z M109.12,28.6c2.64,0,4.26-2.1,4.26-4.14v-0.75
	c-2.82,0.02-4.64,0.12-5.76,0.66c-0.81,0.39-1.23,0.96-1.23,1.8C106.39,27.67,107.35,28.6,109.12,28.6L109.12,28.6z"/>
<path d="M127.27,30.19c-0.88,0.35-1.81,0.53-2.64,0.53c-1.86,0-3.6-0.87-3.6-3.87v-9.42h-2.34V15.3h2.46l0.3-4.53h2.1v4.53h3.21
	v2.13h-3.21v8.53c0,1.65,0.42,2.47,1.61,2.47c0.45,0,0.94-0.08,1.6-0.3L127.27,30.19z"/>
<path d="M129.8,8.95h2.98v3.31h-2.98V8.95z M130.06,15.31h2.52v15h-2.52V15.31z"/>
<path d="M135.88,22.76c0-4.96,2.47-7.81,6.86-7.81c4.38,0,6.86,2.87,6.86,7.81c0,4.91-2.35,7.96-6.83,7.96
	C138.23,30.73,135.88,27.67,135.88,22.76z M142.75,28.45c2.71,0,4.33-2.07,4.33-5.67c0-3.58-1.65-5.55-4.33-5.55
	c-2.7,0-4.35,1.96-4.35,5.55S140.02,28.45,142.75,28.45L142.75,28.45z"/>
<path d="M160.36,14.95c3,0,4.65,2.16,4.65,6.12v9.24h-2.52v-8.94c0-2.94-0.99-4.14-2.79-4.14c-2.7,0-4.26,2.76-4.26,5.43v7.65h-2.52
	v-15h2.25l0.17,2.68C156.35,16,158.33,14.95,160.36,14.95L160.36,14.95z"/>
</svg>
