<?xml version="1.0" encoding="utf-8"?>
<!-- Generator: Adobe Illustrator 26.0.1, SVG Export Plug-In . SVG Version: 6.00 Build 0)  -->
<svg version="1.1" id="레이어_1" xmlns="http://www.w3.org/2000/svg" xmlns:xlink="http://www.w3.org/1999/xlink" x="0px"
	 y="0px" viewBox="0 0 200 40" style="enable-background:new 0 0 200 40;" xml:space="preserve">
<g id="상세페이지">
	<g id="Footer_4_">
	</g>
	<g id="제출_파일_영역">
	</g>
	<g id="작가_정보">
	</g>
	<g id="작품_정보">
	</g>
	<g id="Top_Button_2_">
	</g>
	<g id="Genre_1_">
	</g>
	<g id="부가설명_6_">
	</g>
</g>
<g id="Recipe">
	<g id="Background_1_">
	</g>
	<g id="Footer_1_">
	</g>
	<g id="Home_Button_2_">
	</g>
</g>
<g id="Index">
	<g id="Background">
	</g>
	<g id="Footer">
	</g>
	<g id="작품명_1_">
	</g>
	<g id="텍스트">
	</g>
	<g id="사진">
	</g>
	<g id="Top_Button">
	</g>
	<g id="Menu">
	</g>
	<g id="Home_Button">
	</g>
	<g id="부가설명">
	</g>
</g>
<g id="Guest">
	<g id="Background_5_">
	</g>
	<g id="Footer_5_">
	</g>
	<g id="Menu_3_">
	</g>
	<g id="Home_Button_3_">
	</g>
</g>
<g id="Countdown">
	<g id="Background_4_">
	</g>
	<g id="Instagram_Link">
	</g>
	<g id="고정">
	</g>
	<g id="커서_반응">
	</g>
	<g id="부가설명_1_">
	</g>
</g>
<path d="M42.7,27.94v2.37H30.1V10.78h2.75v17.15h9.85V27.94z"/>
<path d="M45.11,8.95h2.98v3.31h-2.98V8.95z M45.37,15.31h2.52v15h-2.52V15.31z"/>
<path d="M64,15.31l-5.28,15h-3.21l-5.07-15h2.76l3.38,10.32l0.66,2.15l0.7-2.27l3.52-10.2H64z"/>
<path d="M78.55,26.54c-0.89,2.75-3.16,4.19-6.27,4.19c-4.32,0-7.02-2.79-7.02-7.83c0-4.8,2.46-7.95,6.9-7.95
	c4.17,0,6.24,2.79,6.24,8.49H67.74c0.18,3.11,1.83,5.13,4.57,5.13c1.87,0,3.34-0.94,3.96-2.76L78.55,26.54z M67.84,21.31h7.91
	c-0.26-2.93-1.64-4.17-3.72-4.17C69.51,17.14,68.22,18.97,67.84,21.31z"/>
<path d="M81.25,21.34h10.5v2.28h-10.5V21.34z"/>
<path d="M107.5,28.36c0.12,0,0.3-0.02,0.42-0.04v2.1c-0.42,0.07-0.81,0.1-1.14,0.1c-1.62,0-2.64-0.63-2.85-2.08
	c-1.06,1.53-2.8,2.29-4.8,2.29c-2.82,0-4.83-1.44-4.83-4.5c0-1.5,0.54-2.64,1.92-3.42c1.45-0.82,3.71-1.11,7.59-1.15v-1.07
	c0-2.61-1.2-3.54-3.18-3.54c-2.11,0-3.1,1.01-3.41,3.12l-2.21-0.34c0.32-3.28,2.49-4.88,5.83-4.88c3.63,0,5.49,1.92,5.49,6.03v4.71
	C106.33,27.88,106.54,28.36,107.5,28.36L107.5,28.36z M99.55,28.6c2.64,0,4.26-2.1,4.26-4.14v-0.75c-2.82,0.02-4.64,0.12-5.76,0.66
	c-0.81,0.39-1.23,0.96-1.23,1.8C96.82,27.67,97.78,28.6,99.55,28.6L99.55,28.6z"/>
<path d="M109.96,22.87c0-5.11,2.67-7.92,6.78-7.92c3.03,0,4.9,1.5,5.77,4.3l-2.32,0.73c-0.55-1.94-1.84-2.91-3.57-2.91
	c-2.49,0-4.08,2.09-4.08,5.7c0,3.64,1.62,5.73,4.17,5.73c1.72,0,3.06-0.95,3.73-2.7l2.22,0.73c-0.96,2.78-3.02,4.18-5.92,4.18
	C112.66,30.73,109.96,27.98,109.96,22.87z"/>
<path d="M132.64,30.19c-0.88,0.35-1.81,0.53-2.64,0.53c-1.86,0-3.6-0.87-3.6-3.87v-9.42h-2.34V15.3h2.46l0.3-4.53h2.1v4.53h3.21
	v2.13h-3.21v8.53c0,1.65,0.42,2.47,1.61,2.47c0.45,0,0.94-0.08,1.6-0.3L132.64,30.19z"/>
<path d="M135.17,8.95h2.98v3.31h-2.98V8.95z M135.43,15.31h2.52v15h-2.52V15.31z"/>
<path d="M141.25,22.76c0-4.96,2.47-7.81,6.86-7.81c4.38,0,6.86,2.87,6.86,7.81c0,4.91-2.35,7.96-6.83,7.96
	C143.59,30.73,141.25,27.67,141.25,22.76z M148.12,28.45c2.71,0,4.33-2.07,4.33-5.67c0-3.58-1.65-5.55-4.33-5.55
	c-2.7,0-4.35,1.96-4.35,5.55C143.77,26.37,145.38,28.45,148.12,28.45L148.12,28.45z"/>
<path d="M165.73,14.95c3,0,4.65,2.16,4.65,6.12v9.24h-2.52v-8.94c0-2.94-0.99-4.14-2.79-4.14c-2.7,0-4.26,2.76-4.26,5.43v7.65h-2.52
	v-15h2.25l0.17,2.68C161.72,16,163.7,14.95,165.73,14.95L165.73,14.95z"/>
</svg>
