<?xml version="1.0" encoding="utf-8"?>
<!-- Generator: Adobe Illustrator 26.0.1, SVG Export Plug-In . SVG Version: 6.00 Build 0)  -->
<svg version="1.1" id="레이어_1" xmlns="http://www.w3.org/2000/svg" xmlns:xlink="http://www.w3.org/1999/xlink" x="0px"
	 y="0px" viewBox="0 0 200 40" style="enable-background:new 0 0 200 40;" xml:space="preserve">
<path d="M14.01,10.78c6.42,0,10.49,3.32,10.49,9.81c0,6.42-4.07,9.72-10.49,9.72H7.5V10.78H14.01L14.01,10.78z M13.98,27.93
	c4.68,0,7.72-2.54,7.72-7.38c0-4.86-3.06-7.41-7.72-7.41h-3.8v14.78L13.98,27.93L13.98,27.93z"/>
<path d="M40.37,26.54c-0.89,2.75-3.16,4.19-6.27,4.19c-4.32,0-7.02-2.79-7.02-7.83c0-4.8,2.46-7.95,6.9-7.95
	c4.17,0,6.24,2.79,6.24,8.49H29.57c0.18,3.11,1.83,5.13,4.57,5.13c1.87,0,3.34-0.94,3.96-2.76L40.37,26.54z M29.67,21.31h7.91
	c-0.26-2.93-1.64-4.17-3.72-4.17C31.33,17.14,30.04,18.97,29.67,21.31z"/>
<path d="M42.48,27.08l2.18-1.02c0.73,1.5,1.85,2.5,3.88,2.5c1.86,0,3-0.81,3-2.07c0-1.2-1.02-1.86-3.09-2.55l-1.53-0.51
	c-2.71-0.9-3.78-2.1-3.78-4.23c0-2.67,2.37-4.26,5.28-4.26c2.65,0,4.47,1.05,5.54,3.47l-2.1,1c-0.75-1.42-1.78-2.35-3.6-2.35
	c-1.71,0-2.64,0.96-2.64,2.01c0,1.07,0.61,1.6,2.58,2.25l1.35,0.45c2.88,0.96,4.5,2.22,4.5,4.53c0,2.82-2.4,4.41-5.67,4.41
	C45.16,30.73,43.37,29.16,42.48,27.08z"/>
<path d="M56.8,8.95h2.98v3.31H56.8V8.95z M57.06,15.31h2.52v15h-2.52V15.31z"/>
<path d="M71.43,28.28c4.16-0.01,6.11,1.16,6.11,4.16c0,3.57-2.76,4.89-7.59,4.89c-4.86,0-6.93-1.32-6.93-4.23
	c0-1.81,0.8-2.71,1.8-3.23c-1.11-0.55-1.71-1.45-1.71-2.65c0-1.54,0.96-2.42,2.11-2.97c-1.05-0.88-1.75-2.17-1.75-3.93
	c0-3.28,2.42-5.09,5.51-5.34c0.09-4.21,1.72-6.27,4.33-6.27c1.44,0,2.22,0.63,2.8,1.37l-1.56,1.3c-0.37-0.42-0.79-0.57-1.3-0.57
	c-1.3,0-2.02,0.94-2.15,4.24c2.79,0.43,4.85,2.21,4.85,5.27c0,3.78-3.18,5.4-6.24,5.4c-1.06,0-2.14-0.2-3.09-0.61
	c-0.74,0.36-1.17,0.92-1.17,1.6c0,1.05,0.96,1.56,2.68,1.57L71.43,28.28L71.43,28.28z M70.02,35.23c3.27,0,5.07-0.75,5.07-2.7
	c0-1.65-1.26-2.04-4.41-2.04h-2.59c-0.49,0-0.95-0.03-1.37-0.08c-0.94,0.53-1.31,1.19-1.31,2.19C65.4,34.45,66.66,35.23,70.02,35.23
	L70.02,35.23z M65.97,20.35c0,2.64,1.95,3.33,3.75,3.33s3.78-0.69,3.78-3.36c0-2.55-1.8-3.33-3.72-3.33
	C67.8,16.99,65.97,17.8,65.97,20.35z"/>
<path d="M86.97,14.95c3,0,4.65,2.16,4.65,6.12v9.24H89.1v-8.94c0-2.94-0.99-4.14-2.79-4.14c-2.7,0-4.26,2.76-4.26,5.43v7.65h-2.52
	v-15h2.25l0.17,2.68C82.95,16,84.93,14.95,86.97,14.95L86.97,14.95z"/>
<path d="M112.5,10.78c4.41,0,7.08,2.53,7.08,5.99c0,3.38-2.46,6.26-6.95,6.26h-5.4v7.27h-2.74V10.78H112.5L112.5,10.78z
	 M111.62,20.67c3.58,0,5.08-1.82,5.08-3.89c0-2.16-1.6-3.62-5.24-3.62h-4.24v7.52h4.4V20.67z"/>
<path d="M128.85,14.98c1.34,0,2.28,0.76,2.79,1.74l-1.93,1.43c-0.37-0.53-0.85-0.83-1.46-0.83c-1.84,0-3.28,2.89-3.28,6.47v6.51
	h-2.52v-15h2.25l0.18,3C125.71,15.92,127.43,14.98,128.85,14.98L128.85,14.98z"/>
<path d="M132.02,22.76c0-4.96,2.47-7.81,6.86-7.81c4.38,0,6.86,2.87,6.86,7.81c0,4.91-2.35,7.96-6.83,7.96
	C134.37,30.73,132.02,27.67,132.02,22.76z M138.9,28.45c2.71,0,4.33-2.07,4.33-5.67c0-3.58-1.65-5.55-4.33-5.55
	c-2.7,0-4.35,1.96-4.35,5.55C134.54,26.37,136.16,28.45,138.9,28.45L138.9,28.45z"/>
<path d="M152.37,33.45c0,3-1.92,3.87-3.63,3.87c-0.84,0-1.82-0.2-2.72-0.62l0.74-2.06c0.62,0.28,1.1,0.4,1.61,0.4
	c1.12,0,1.48-0.55,1.48-2.21V17.44h-2.97v-2.13h5.49V33.45z M152.57,8.95v3.31h-2.98V8.95H152.57z"/>
<path d="M168.95,26.54c-0.89,2.75-3.16,4.19-6.27,4.19c-4.32,0-7.02-2.79-7.02-7.83c0-4.8,2.46-7.95,6.9-7.95
	c4.17,0,6.24,2.79,6.24,8.49h-10.66c0.18,3.11,1.83,5.13,4.57,5.13c1.87,0,3.34-0.94,3.96-2.76L168.95,26.54z M158.25,21.31h7.91
	c-0.26-2.93-1.64-4.17-3.72-4.17C159.91,17.14,158.62,18.97,158.25,21.31z"/>
<path d="M171.5,22.87c0-5.11,2.67-7.92,6.78-7.92c3.03,0,4.9,1.5,5.77,4.3l-2.32,0.73c-0.55-1.94-1.84-2.91-3.57-2.91
	c-2.49,0-4.08,2.09-4.08,5.7c0,3.64,1.62,5.73,4.17,5.73c1.72,0,3.06-0.95,3.73-2.7l2.22,0.73c-0.96,2.78-3.02,4.18-5.92,4.18
	C174.2,30.73,171.5,27.98,171.5,22.87z"/>
<path d="M194.19,30.19c-0.88,0.35-1.81,0.53-2.64,0.53c-1.86,0-3.6-0.87-3.6-3.87v-9.42h-2.34V15.3h2.46l0.3-4.53h2.1v4.53h3.21
	v2.13h-3.21v8.53c0,1.65,0.42,2.47,1.61,2.47c0.45,0,0.94-0.08,1.6-0.3L194.19,30.19z"/>
</svg>
