<?xml version="1.0" encoding="utf-8"?>
<!-- Generator: Adobe Illustrator 26.0.1, SVG Export Plug-In . SVG Version: 6.00 Build 0)  -->
<svg version="1.1" id="레이어_1" xmlns="http://www.w3.org/2000/svg" xmlns:xlink="http://www.w3.org/1999/xlink" x="0px"
	 y="0px" viewBox="0 0 200 40" style="enable-background:new 0 0 200 40;" xml:space="preserve">
<path d="M41.56,27.89v2.42H30.75v-2.42h4.02V13.2h-4.02v-2.42h10.81v2.42h-4.02v14.69H41.56z"/>
<path d="M45,8.2h2.52v22.11H45V8.2z"/>
<path d="M52.02,8.2h2.52v22.11h-2.52V8.2z"/>
<path d="M70.76,15.31v15H68.5l-0.18-2.75c-0.99,2.08-2.88,3.17-5.01,3.17c-3.3,0-4.65-2.61-4.65-6.24v-9.18h2.52v9.03
	c0,2.94,0.99,4.11,2.76,4.11c2.52,0,4.29-2.4,4.29-6v-7.14C68.23,15.31,70.76,15.31,70.76,15.31z"/>
<path d="M73.62,27.08l2.18-1.02c0.73,1.5,1.85,2.5,3.88,2.5c1.86,0,3-0.81,3-2.07c0-1.2-1.02-1.86-3.09-2.55l-1.53-0.51
	c-2.71-0.9-3.78-2.1-3.78-4.23c0-2.67,2.37-4.26,5.28-4.26c2.65,0,4.47,1.05,5.54,3.47l-2.1,1c-0.75-1.42-1.78-2.35-3.6-2.35
	c-1.71,0-2.64,0.96-2.64,2.01c0,1.07,0.61,1.6,2.58,2.25l1.35,0.45c2.88,0.96,4.5,2.22,4.5,4.53c0,2.82-2.4,4.41-5.67,4.41
	C76.3,30.73,74.52,29.16,73.62,27.08z"/>
<path d="M95.04,30.19c-0.88,0.35-1.81,0.53-2.64,0.53c-1.86,0-3.6-0.87-3.6-3.87v-9.42h-2.34V15.3h2.46l0.3-4.53h2.1v4.53h3.21v2.13
	h-3.21v8.53c0,1.65,0.42,2.47,1.61,2.47c0.45,0,0.94-0.08,1.6-0.3L95.04,30.19z"/>
<path d="M104.22,14.98c1.34,0,2.28,0.76,2.79,1.74l-1.93,1.43c-0.37-0.53-0.85-0.83-1.46-0.83c-1.84,0-3.28,2.89-3.28,6.47v6.51
	h-2.52v-15h2.25l0.18,3C101.08,15.92,102.8,14.98,104.22,14.98L104.22,14.98z"/>
<path d="M120.6,28.36c0.12,0,0.3-0.02,0.42-0.04v2.1c-0.42,0.07-0.81,0.1-1.14,0.1c-1.62,0-2.64-0.63-2.85-2.08
	c-1.06,1.53-2.8,2.29-4.8,2.29c-2.82,0-4.83-1.44-4.83-4.5c0-1.5,0.54-2.64,1.92-3.42c1.45-0.82,3.71-1.11,7.59-1.15v-1.07
	c0-2.61-1.2-3.54-3.18-3.54c-2.11,0-3.1,1.01-3.41,3.12l-2.21-0.34c0.32-3.28,2.49-4.88,5.83-4.88c3.63,0,5.49,1.92,5.49,6.03v4.71
	C119.43,27.88,119.64,28.36,120.6,28.36L120.6,28.36z M112.65,28.6c2.64,0,4.26-2.1,4.26-4.14v-0.75c-2.82,0.02-4.64,0.12-5.76,0.66
	c-0.81,0.39-1.23,0.96-1.23,1.8C109.92,27.67,110.88,28.6,112.65,28.6L112.65,28.6z"/>
<path d="M130.8,30.19c-0.88,0.35-1.81,0.53-2.64,0.53c-1.86,0-3.6-0.87-3.6-3.87v-9.42h-2.34V15.3h2.46l0.3-4.53h2.1v4.53h3.21v2.13
	h-3.21v8.53c0,1.65,0.42,2.47,1.61,2.47c0.45,0,0.94-0.08,1.6-0.3L130.8,30.19z"/>
<path d="M133.33,8.95h2.98v3.31h-2.98V8.95z M133.59,15.31h2.52v15h-2.52V15.31z"/>
<path d="M139.41,22.76c0-4.96,2.47-7.81,6.86-7.81c4.38,0,6.86,2.87,6.86,7.81c0,4.91-2.35,7.96-6.83,7.96
	C141.75,30.73,139.41,27.67,139.41,22.76z M150.61,22.78c0-3.58-1.65-5.55-4.33-5.55c-2.7,0-4.35,1.96-4.35,5.55
	c0,3.6,1.62,5.67,4.35,5.67C148.99,28.45,150.61,26.38,150.61,22.78z"/>
<path d="M163.89,14.95c3,0,4.65,2.16,4.65,6.12v9.24h-2.52v-8.94c0-2.94-0.99-4.14-2.79-4.14c-2.7,0-4.26,2.76-4.26,5.43v7.65h-2.52
	v-15h2.25l0.17,2.68C159.87,16,161.85,14.95,163.89,14.95L163.89,14.95z"/>
</svg>
