<?xml version="1.0" encoding="utf-8"?>
<!-- Generator: Adobe Illustrator 25.4.1, SVG Export Plug-In . SVG Version: 6.00 Build 0)  -->
<svg version="1.1" id="레이어_1" xmlns="http://www.w3.org/2000/svg" xmlns:xlink="http://www.w3.org/1999/xlink" x="0px"
	 y="0px" viewBox="0 0 60 20" style="enable-background:new 0 0 60 20;" xml:space="preserve">
<style type="text/css">
	.st0{fill:#0B0BFF;}
	.st1{fill:#FF00F3;}
</style>
<g>
	<g>
		<path class="st1" d="M14,10c2.6-5.6,4.3-6.5,5.8-6.8c-1,0.7-2.1,1.5-4.8,7.3c-3.2,6.9-5.4,9-8.1,9c-2.3,0-3.3-2.2-3.3-3.6
			c0-0.2,0-0.4,0-0.6c0,1.4,1.2,3.4,3,3.4c2.4,0,4.5-2.3,7.2-8.1c-1-0.1-1.9-0.2-2.8-0.2c-5,0-8,1.8-8,5.4c0,0.5,0.1,1,0.3,1.2
			c-0.5-0.6-0.8-1.3-0.8-2.2c0-3.1,3.1-4.9,8.2-4.9c1.1,0,2.2,0.1,3.4,0.2L14,10z M13.1,1.3c-2.6,0-4.4,1.3-4.4,3.3
			c0,0.6,0.1,1.1,0.4,1.7C8.6,5.7,8.4,5,8.4,4.1c0-2.2,1.7-3.6,4.6-3.6c4.2,0,9.1,3.2,13.5,3.2c2.2,0,3.2-0.8,3.2-1.7
			c0.1,0.2,0.1,0.4,0.1,0.6c0,1.2-1.3,1.9-3.3,1.9C22.5,4.5,17.1,1.3,13.1,1.3z M15.8,10.3c1.1,0.1,2.4,0.3,3.3,0.3
			c1.5,0,2.2-0.3,2.7-1c-0.1,1.1-0.7,1.4-2.4,1.4c-0.9,0-2.4-0.2-3.8-0.4L15.8,10.3z M20.8,17.9c-0.1-0.4-0.2-0.6-0.2-1.1
			c0-1,0.3-1.7,1.7-3.2c1.3-1.3,2.1-2.2,2.1-3c0-0.5-0.2-0.7-0.4-0.9c0.9,0.3,1.2,0.7,1.2,1.4c0,0.9-0.9,1.9-2.2,3.2
			C22.1,15.3,20.8,16.4,20.8,17.9z M21.1,18c0-0.2,0.1-0.5,0.2-0.7c0,0.2,0.2,0.4,0.6,0.4c1,0,3.1-1.7,4.8-3.4h0.1
			c-1.8,2-3.7,4.2-5.1,4.2C21.3,18.5,21.1,18.3,21.1,18z M22.5,8.3c0,0.6,0.5,1,1.3,1.4c-1.1-0.2-2.2-0.6-2.2-1.5c0-0.6,0.4-1,0.8-1
			c0.2,0,0.4,0.1,0.6,0.2C22.8,7.5,22.5,7.8,22.5,8.3z M27.5,1.4c1.3,0,1.7,0.3,1.7,0.7c0,0.2-0.1,0.3-0.2,0.5
			C28.5,2.1,27.2,2,26.6,2c-2,0-3.9,0.2-4.9,0.4C22.6,2,25.6,1.4,27.5,1.4z"/>
		<path class="st1" d="M33.6,9.6c1.4,0,1.9,0.9,2,1.8c-0.2-0.6-0.8-1-1.7-1c-2.8,0-6.4,3.8-6.4,6.8c0,0.4,0.1,0.6,0.2,0.9
			c-0.5-0.5-0.7-1.2-0.7-1.9C26.9,13.4,30.6,9.6,33.6,9.6z M27.9,17.2c0.1,0.3,0.4,0.5,0.9,0.5c2.3,0,6.2-3.6,6.2-6.2
			c0-0.2,0-0.3-0.1-0.5c0.4,0.2,0.7,0.7,0.7,1.3c0,2.6-4,6.1-6.4,6.1C28.4,18.5,27.9,18.2,27.9,17.2z"/>
		<path class="st1" d="M41.5,11.6c0,0.6-0.4,1.6-1,2.5c-0.6,0.9-1.2,1.5-3.9,4.4l-0.6-0.8c1.3-1.4,3-3.2,3.7-4.2
			c0.7-0.9,1.3-2,1.3-2.6c0-0.1,0-0.1,0-0.2C41.4,10.9,41.5,11.2,41.5,11.6z M36.1,13.8c2.3-2.7,4-4.2,4.8-4.2
			c0.5,0,0.9,0.6,0.9,1.4c-0.1-0.4-0.4-0.7-0.8-0.7C40.1,10.4,38.1,11.9,36.1,13.8L36.1,13.8z M41,13.9c0.8-1,1.6-1.9,2.5-2.7
			c1.4-1.2,2.2-1.7,2.9-1.7c0.6,0,1.2,0.5,1.4,1.4c-0.3-0.5-0.6-0.6-1-0.6C45.4,10.4,43.5,11.6,41,13.9z M45.1,15.6
			c-1.2,1.4-1.6,1.8-2.6,2.9L42,17.7l2.9-3.3c1.6-1.8,2.2-2.8,2.2-3.4c0-0.1-0.1-0.2-0.1-0.3c0.4,0.1,0.7,0.4,0.7,0.9
			C47.6,12.5,47,13.4,45.1,15.6z M53.6,11c-0.2-0.5-0.6-0.6-1.1-0.6c-1.2,0-2.9,1.1-5.5,3.6c0.9-1.2,1.6-2,2.1-2.5
			c1.6-1.5,2.3-1.9,2.9-1.9C52.8,9.6,53.3,10.1,53.6,11z M48.8,17.3c0-1.2,0.3-1.7,1.5-2.9c2-1.9,2.6-2.6,2.6-3.4
			c0-0.2-0.1-0.3-0.1-0.3c0.5,0.2,0.7,0.5,0.7,1c0,1.1-1,1.9-2.3,3.3c-1.5,1.4-2.2,2.1-2.3,2.8V17.3z M55.3,14.3
			c-2.8,3-4.4,4.2-5.6,4.2c-0.4,0-0.7-0.2-0.7-0.5c0-0.2,0.1-0.5,0.3-0.7c0,0.3,0.1,0.4,0.4,0.4C50.9,17.7,53.3,16.2,55.3,14.3
			L55.3,14.3z"/>
		<path class="st1" d="M55.5,17.7c0-0.7,0.6-1.4,1.3-1.4c0.3,0,0.6,0.1,0.8,0.3c-0.9,0.1-1.6,1.1-1.6,1.9
			C55.6,18.4,55.5,18.1,55.5,17.7z"/>
	</g>
</g>
</svg>
