<?xml version="1.0" encoding="utf-8"?>
<!-- Generator: Adobe Illustrator 25.4.1, SVG Export Plug-In . SVG Version: 6.00 Build 0)  -->
<svg version="1.1" id="레이어_1" xmlns="http://www.w3.org/2000/svg" xmlns:xlink="http://www.w3.org/1999/xlink" x="0px"
	 y="0px" viewBox="0 0 30 20" style="enable-background:new 0 0 30 20;" xml:space="preserve">
<style type="text/css">
	.st0{fill:#0B0BFF;}
</style>
<g>
	<g>
		<path class="st0" d="M1.1,14.6c0-2,1.8-3.7,4.9-3.7c0.7,0,1.6,0.1,2.3,0.3c-0.3,0-0.7-0.1-1.1-0.1c-3.6,0-5.4,1.9-5.4,4.2
			c0,0.7,0,1.4,0.4,2.2C1.4,16.6,1.1,15.5,1.1,14.6z M19.3,3.5c-1.9,1-2.3,1.2-5.6,7.1c-3.5,6.3-4.9,8.8-7.9,8.8
			c-2.1,0-3.3-1.2-3.5-3.5c0.4,1.6,1.5,2.6,3.2,2.6c2.5,0,4-2.7,7.2-8.4C15.8,4.6,17.2,3.8,19.3,3.5z M11.7,1.4
			c-2.6,0-4.2,1.2-4.2,3c0,0.3,0,0.6,0.1,0.8c-0.3-0.3-0.5-1-0.5-1.5c0-1.9,1.7-3.1,4.5-3.1c4.5,0,8.5,3,12.8,3
			c1.5,0,2.3-0.4,2.6-0.7c0,0.9-0.9,1.5-2.8,1.5C20.4,4.4,15.9,1.4,11.7,1.4z M11.6,7.3C9.4,7.2,8,6.1,8,4.8C8,4.5,8.1,4.2,8.2,4
			C8.4,5.6,9.7,6.8,11.6,7.3z M25.5,2c0.9,0,1.3,0.3,1.3,0.6c0,0.2-0.1,0.3-0.3,0.3c-0.1-0.2-0.7-0.4-1.6-0.4c-0.7,0-2.4,0.1-4,0.3
			C22.1,2.4,24.4,2,25.5,2z"/>
		<path class="st0" d="M23.1,9.7c1.4,0,1.9,0.9,2,1.8c-0.2-0.6-0.8-1-1.7-1c-2.8,0-6.4,3.8-6.4,6.8c0,0.4,0.1,0.6,0.2,0.9
			c-0.5-0.5-0.7-1.2-0.7-1.9C16.4,13.5,20.1,9.7,23.1,9.7z M17.4,17.3c0.1,0.3,0.4,0.5,0.9,0.5c2.3,0,6.2-3.6,6.2-6.2
			c0-0.2,0-0.3-0.1-0.5c0.4,0.2,0.7,0.7,0.7,1.3c0,2.6-4,6.1-6.4,6.1C17.9,18.6,17.4,18.3,17.4,17.3z"/>
		<path class="st0" d="M26.8,17.8c0-0.7,0.6-1.4,1.3-1.4c0.3,0,0.6,0.1,0.8,0.3c-0.9,0.1-1.6,1.1-1.6,1.9
			C26.9,18.5,26.8,18.2,26.8,17.8z"/>
	</g>
</g>
</svg>
