<?xml version="1.0" encoding="utf-8"?>
<!-- Generator: Adobe Illustrator 26.0.1, SVG Export Plug-In . SVG Version: 6.00 Build 0)  -->
<svg version="1.1" id="레이어_1" xmlns="http://www.w3.org/2000/svg" xmlns:xlink="http://www.w3.org/1999/xlink" x="0px"
	 y="0px" viewBox="0 0 300 280" style="enable-background:new 0 0 300 280;" xml:space="preserve">
<style type="text/css">
	.st0{fill:#474747;}
</style>
<path class="st0" d="M285.1,82.45c4.22-7.89,2.78-22.7-10.05-24.03c-17.83-5.93-17.03,24.72-25.96,11.1
	c-12.14-2.36,3.18-9.35-0.1-19.61c-1.54-10.14-14.82-14.22-22.5-7.9c1.62-30.71-24.63-14.55-29.51-11.23
	C185.15,6.4,173,33.39,160.64,6.88c-9.07-7.04-21.95-1.16-23.25,9.82c-10.03-13.89-29.87,1.24-27.13,15.53
	c-11.12-7.66-24.24,0.48-23.41,13.38c-17.04-10.17-4.84,0.23,0.76-17.78c2.85-20.27-28.19-20.77-29.14-0.86
	c0.82,5.04-7.95-1.33-11.43,0.93c-9.68-0.74-11.37,14.66-14.4,12.33C11.55,27.91-1.83,57.05,21.16,64.06
	c-7.4,2.76-15.81,14.47-7.62,23.11c3.48,4.5-28.44,12.44-2.55,30.1c-8.92,1.69-11.33,11.43-9.04,18.86
	c25.86,15.01,13.37-4.88,16.5,23.79c3.7,7.41,13.59,4.7,18.93,2.26c-10.89,21.12,16.63,16.74,8.82,21.51
	c-14.51,16.78,13.9,19.77-1.74,27.72c-10.91-48.16-47.14,25.6-6.68,11.44c8.69-11.27,2,5.37,15.16,8.93
	c14.56,6.79,18.71-11.44,17.57-0.69c0.88,13.62,23.58,23.05,26.79,5.92c-1.66-11.46,1.03-5.07,8.94-2.6
	c-19.98,11.11,0.44,35.66,16.95,23.68c5.18-4.04,3.41-6.87,4.76,1.83c7.48,20.36,19.56-3.16,27.25,14.09
	c36.2,14.98,19.34-53.8-5.26-21.74c0.59-7.81-9.16-13.19-10.98-15.65c11.1-7.39,2.92-18.2,9.03-18.19
	c11.96-5.03-3.43,14.46,4.81,17.73c8.31,10.28,14.84-6.46,17.24,0.66c11.29,21.73,40.62-6.78,21.75-20.14
	c-12.66-6.35-14.42,4.99-20.71-7.33c-16.55-2.61-1.6-1.92-9.95-14.38c-8.55-2.12-4.19-10.4,1.28-3.93
	c2.76,2.87,11.39-1.68,11.01,1.15c-12.04,25.44,41.78,25.25,25.92-0.48c-2.08-3.5,18.07,0.34,17.06-12.9
	c6.59,0.09,17.39,8.43,24.34-2.47c4.34-6.24,2.81-15.45-3.83-19.65c17.96-3.7,16.54-28.46-1.51-32.32c11.38-10.86,3.08-7,11.8,1.93
	c10.62,8.42,29.32-2.4,26.7-15.79C295.46,121.53,312.35,83.67,285.1,82.45z M229.6,70.92c3.44-0.17-2.06,3.33-2.54,4.98
	C224.81,72.46,222.9,66.93,229.6,70.92z M209.72,54.63c2.82,1.19,11.01-5.36,9.41-1.53c0.82,18.21-3.1-1.16-12.98,3.17
	c-1.25,2-3.12,2.06-3.59-0.44C197.86,49.34,206.12,56.02,209.72,54.63z M191.88,45.16c4.49-5.4,3.26,0.14,5.8,4.38
	C196.94,48.92,189.02,47.06,191.88,45.16z M112.94,88.93c-0.66,4.71,0.36,18.29-4.24,22.83c-4.17,1.95,0.09-4.32,0.59-5.85
	c-1.63-9.23-11.71,0-7.9-8.72C98.25,85.69,106.09,94.42,112.94,88.93z M68.38,153.19c-2.79,2.62-3.11,6.86-5.31,9.43
	C60.96,162.48,66.05,150.61,68.38,153.19z M56.47,112.25c-7.39-7.37-1.08-3.43,3.79-7.37C59.64,111.2,60.44,131.95,56.47,112.25z
	 M88.61,81.75c1.25-0.79,2.35-6.62,3.66-3.56c3.2,11.6,6.63,7.43-5.62,7.18C82.44,87.25,86.98,82.21,88.61,81.75z M134.05,124.96
	c-1.28,0.59-3.26,2.52-4.51,1.75C129.24,124.96,132.81,125.25,134.05,124.96z M145,162.23c-4.8-6.74-0.53-18.19,2.3-5.64
	C150.66,161.11,151.03,161.16,145,162.23z M143.81,99.89c-9.74,5.14-8.21-7.86-3.75-4.02C140.29,97.73,144.85,98.15,143.81,99.89z
	 M134.13,84.69c-5.18-8.58-18.01,1.43-16.27-2.9c1.89-17.28,3.4,3.4,16.4-2.57C140,74.12,136.27,87.69,134.13,84.69z M84.73,65.67
	c10.73-6.07-0.51-17.38,13.36-6.41c1.68,0.44,2.89,1.19,0.56,1.85c-9.16,4.65-2.04,11.91-13.55,6.14
	C82.73,67.88,83.22,66.64,84.73,65.67z M68.22,41.07c0.53,1.52-1.64,0.28-2.41,1.3C63.92,41.3,66.7,39.2,68.22,41.07z M26.99,137.96
	c11.29-15.39-9.75-20.68-5.15-22.66c12.22-6.68,6.77-15.52,5.29-23.05c18.89-1.03,15.89-23.23,0.94-27.54
	c4.59-0.05,7.95-3.58,9.93-7.24c1.77-12.98,7.32,1.6,21.15-6.37c-2.01,9.35,6.28,17.38,15.64,17.38
	c2.75,0.24-23.04,16.21-5.58,20.76c2.72,0.07,12.41-2.03,5.36,1.59c-1.28,3.85-0.6,8.43-6.31,7.58c-7.14,4.64,1.62-9.26-6.62-13.42
	c-8.09-9.7-24.16-2.7-23.68,10.02c5.12,14.4,3.24,5.08-5.27,13.79c-10.38,13.28,7.39,25.84,19.83,22.27
	C47.43,139.74,36.04,137.68,26.99,137.96z M72.47,222.93c-1.2,1.17-1,1.3-1.13-0.38c2.23-7.17-8.51-14.65-11.1-15.6
	c7.06-0.05,14.75-14.01,11,0.53C70.02,214.1,77.61,218.12,72.47,222.93z M78.37,149.7c-2.79-1.07-7.73,3.22-8.32,0.96
	c2.41-1.92,4.79-10.65,7.71-4.74C78.71,148.25,84.06,150.54,78.37,149.7z M92.23,221.27c-0.65,0.81-1.27-0.85-0.21-1.12
	C92.71,220.05,92.41,220.86,92.23,221.27z M86.97,179.01c-9.47,0.75,4.68-4.59,4.13-11.55c2.59-6.64-10.18-17.34-1.54-14.79
	c21.4-3.91,7.58,4.35,2.77,14.89C88.44,181.66,99.04,179.08,86.97,179.01z M94.41,194.89c1.9-0.53,2.24-7.38,3.74-5.35
	c2.8,0.44-0.28,16.13-1.39,10.37C96.53,198.07,93.32,196.7,94.41,194.89z M97.94,214.95c-1.93-2.95-0.04-13.84,3.9-3.87
	C109.78,218.37,100.36,212.17,97.94,214.95z M131.29,240.83c-4.92,8.57-2.24,5.77-6.67-1c-2.7-2.89-12.64-8.06-5.99-9.43
	C117.66,238.95,134.89,238.72,131.29,240.83z M135.47,202.63c-1.32,11.4-5.96,2.69-12.24,10.08c-7.27,7.88-2.25,16.51-10.69,3.54
	c25.37-2.93,4.18-30.47,14.32-21.45C132.3,199.52,142.01,193.1,135.47,202.63z M161.69,99.28c-2.4,19.5,20.15,13.17,9.13,20.4
	c-2.24,0.79-5.4,10.87-5.44,5.74c-4.13-6.34-4.26-12.11-7.05-18.97C151.97,100.88,154.76,101.48,161.69,99.28z M156.97,167.93
	c-3.63-4.72,5.13-2.43,7.13-2.41C162.21,167,158.15,173.56,156.97,167.93z M163.62,136.3c0.52-0.87,1.34-5.52,2.41-3.71
	C167.01,135.32,167.43,139.8,163.62,136.3z M175.15,164.98c-1-0.03-8.1-1.05-4.43-1.9C174.48,159,175.9,159.18,175.15,164.98z
	 M178.13,144.26c5.34-0.04,3.64,1.82,0.42,4.55C177.33,149.95,175.31,143.93,178.13,144.26z M190.95,117.8
	c-0.34,3.56-2.93-0.24-4.54-0.87c-2.13-0.87-8.26-1.28-2.83-3.4c7.92-1.62,8.27-19.65,10.46-14.03
	C207,106.71,188.71,104.53,190.95,117.8z M182.21,176.08c1.69-8.51,5.48,7.03,7.86,9.15C175.12,185.35,181.05,189.43,182.21,176.08z
	 M193.11,162.4c0.79-6.14,3.01-2.78,6.87-0.75C198.59,161.8,194.21,163.62,193.11,162.4z M199.51,133.97
	c-5.47,2.14-6.76,14.11-11.97,7.31c4.62-2.42,4.56-11.39,6.46-13.71C194.96,129.86,203.91,132.29,199.51,133.97z M189.89,89.91
	c-13.78-15.17-24.47,8.12-25.11-5.77c-9.4-22.26-27.03-0.9-21.16-17.26c-1.44-7.78,8.11,6.49,13.02,4.36
	c36.92-7.5-3.82-45.51-17.29-16.78c-10-13.27-24.04-0.48-25.2,9.72c-10.11-6.67-0.16-3.84,3.46-12.4
	c-1.83-23.16,13.72,1.66,22.98-25.99c4.94,7.67,16.02,11.02,23.3,4.49c-1.8,8.71,4.89,18.05,14.07,19.14
	c-4.63,9.62-6.51,29.09,13.88,28.68c12.31,1.04,10.32-17.07,16.68-0.87C199.96,74.31,189.66,80.58,189.89,89.91z M211.81,165.81
	c1.06,3.88-7.64-2.56-5.92-3.14C212.22,162.87,213.29,157.11,211.81,165.81z M222.17,153.31c-7.42,6.24-1.38-9.1-0.62-6.33
	C223.79,151.12,230.41,153.47,222.17,153.31z M221.29,131.57c-1.77,0.92-1.46,8.97-3.49,5.67c-12.09-9.18-0.31-3.2,0.95-15.89
	C227.97,127.98,228.95,122.83,221.29,131.57z M218.24,102.13c-3.29,6.21-2.22,10.92-8.38,2.73c6.78-1.66,12.92-7.8,11.14-15.58
	c-3.36-9.86-1.71-1.99,4.27-7.05C237.14,103.31,230.35,86.37,218.24,102.13z M266.82,101.25c-10.79-4.82-23.31,10.31-22.25,5.9
	c0.78-3.28-4.43-8.59-2.52-9.75c7.03,0.87,16.74-4.85,15.86-12.73C271.27,92.66,270.1,83.32,266.82,101.25z"/>
</svg>
