<?xml version="1.0" encoding="utf-8"?>
<!-- Generator: Adobe Illustrator 26.0.1, SVG Export Plug-In . SVG Version: 6.00 Build 0)  -->
<svg version="1.1" id="레이어_1" xmlns="http://www.w3.org/2000/svg" xmlns:xlink="http://www.w3.org/1999/xlink" x="0px"
	 y="0px" viewBox="0 0 220 360" style="enable-background:new 0 0 220 360;" xml:space="preserve">
<style type="text/css">
	.st0{fill:#474747;}
</style>
<path class="st0" d="M81.76,101.12c-4.4-0.93-8.8-1.84-13.19-2.79c-13.31-2.88-26.37-6.6-39.13-11.37
	c-6.75-2.52-12.34-6.88-16.84-12.19c-3.99-4.71-6.3-10.54-7.23-16.91c-1.15-7.82-0.1-15.08,3.1-22.3
	c4.5-10.15,12.91-16.14,22.05-21.18C41.05,8.57,52.59,5.24,64.25,2.43c0.85-0.21,2.03,0.13,2.81,0.62c2.14,1.33,3.39,3.41,4.81,5.5
	c4.8,7.09,5.69,15.21,5.87,23.25c0.15,7.15-1.26,14.32-3.99,21.36c2.83,0.66,5.64,1.43,8.49,1.95c19.75,3.57,39.49,7.14,59.26,10.59
	c14.16,2.47,28.39,4.59,42.53,7.21c5.37,1,10.72,2.57,15.79,4.61c4.48,1.81,8.05,5.11,10.66,9.39c3.02,4.95,4.59,10.38,4.62,16.01
	c0.02,4.02-1.34,8.05-2.1,12.08c-0.05,0.25-0.25,0.46-0.34,0.7c-4.32,10.59-12.72,16.29-23.19,19.72
	c-14.93,4.91-30.12,8.77-45.55,11.72c-0.69,0.13-1.36,0.33-2.08,0.86c1.61,0.34,3.22,0.7,4.84,1.02
	c14.83,2.98,29.38,6.93,43.59,12.15c6.65,2.44,12.21,6.63,16.6,11.83c3.04,3.61,4.86,8.49,6.34,13.09
	c1.98,6.14,1.74,12.6-0.16,18.77c-1.99,6.46-4.93,12.42-10.12,17.14c-8.27,7.53-17.8,12.77-28.79,16.4
	c3.46,1.53,6.49,2.85,9.51,4.22c7.87,3.57,14.74,8.72,20.33,15.13c5.57,6.38,8.65,14.18,9.48,22.81c0.8,8.36-0.43,16.25-4.22,23.74
	c-2.79,5.51-5.79,10.81-10.63,14.9c-9.61,8.13-20.04,14.84-31.75,19.54c-16.46,6.61-33.47,11.27-50.94,14.06
	c-12.58,2.01-25.28,3.21-37.93,4.77c-1.66,0.2-2.88-0.07-4.22-1.55c-5.54-6.13-6.26-13.54-6.45-21.23
	c-0.14-5.75,0.46-11.44,2.21-16.86c1.71-5.29,4.45-10.19,8.23-14.37c0.48-0.53,1.5-0.69,2.29-0.81c14.01-2.16,28.11-3.87,42.03-6.55
	c14.26-2.75,28.16-7,41.43-13.07c0.34-0.15,0.65-0.36,1.57-0.86c-5.77-2.21-11.02-4.37-16.36-6.24c-13.45-4.72-27.4-7.29-41.44-9.41
	c-17.6-2.67-35.31-4.43-53.11-4.81c-6.79-0.14-13.59,0.37-20.38,0.74c-4.59,0.25-9.2-0.18-13.3-1.9c-3.08-1.29-5.91-3.87-8.06-6.52
	c-3.56-4.41-5.17-9.9-5.32-15.51c-0.1-3.72,0.43-7.63,1.57-11.18c1.67-5.22,4.82-9.68,9.55-12.78c0.75-0.49,1.55-0.98,2.39-1.28
	c7.49-2.7,15.3-3.95,23.14-5.03c31.09-4.28,62.18-8.56,92.94-14.95c0.63-0.13,1.24-0.33,1.89-0.85c-2.98-0.61-5.94-1.34-8.94-1.82
	c-21.69-3.47-43.4-6.83-65.08-10.36c-11.03-1.79-22.03-3.78-33.01-5.85c-3.26-0.62-6.55-1.5-9.58-2.83
	c-5.1-2.25-9.11-5.79-11.97-10.78c-2.64-4.59-3.83-9.55-4.06-14.59c-0.19-4.36,0.4-8.87,2.35-12.99c0.06-0.12,0.13-0.23,0.18-0.35
	c4-9.63,11.54-15.15,21.11-18.43c16.37-5.6,33.15-9.53,50.13-12.74c0.69-0.13,1.37-0.29,2.05-0.44
	C81.75,101.3,81.75,101.21,81.76,101.12z"/>
</svg>
