<?xml version="1.0" encoding="utf-8"?>
<!-- Generator: Adobe Illustrator 25.4.1, SVG Export Plug-In . SVG Version: 6.00 Build 0)  -->
<svg version="1.1" id="레이어_1" xmlns="http://www.w3.org/2000/svg" xmlns:xlink="http://www.w3.org/1999/xlink" x="0px"
	 y="0px" viewBox="0 0 220 360" style="enable-background:new 0 0 220 360;" xml:space="preserve">
<style type="text/css">
	.st0{fill:none;stroke:#F566FF;stroke-width:2;stroke-miterlimit:10;}
</style>
<path class="st0" d="M81.8,101.1c-4.4-0.9-8.8-1.8-13.2-2.8C55.3,95.5,42.2,91.7,29.4,87c-6.8-2.5-12.3-6.9-16.8-12.2
	c-4-4.7-6.3-10.5-7.2-16.9C4.2,50,5.3,42.8,8.5,35.6c4.5-10.1,12.9-16.1,22-21.2C41,8.6,52.6,5.2,64.2,2.4c0.8-0.2,2,0.1,2.8,0.6
	c2.1,1.3,3.4,3.4,4.8,5.5c4.8,7.1,5.7,15.2,5.9,23.2c0.2,7.2-1.3,14.3-4,21.4c2.8,0.7,5.6,1.4,8.5,2c19.8,3.6,39.5,7.1,59.3,10.6
	c14.2,2.5,28.4,4.6,42.5,7.2c5.4,1,10.7,2.6,15.8,4.6c4.5,1.8,8.1,5.1,10.7,9.4c3,4.9,4.6,10.4,4.6,16c0,4-1.3,8.1-2.1,12.1
	c-0.1,0.2-0.2,0.5-0.3,0.7c-4.3,10.6-12.7,16.3-23.2,19.7c-14.9,4.9-30.1,8.8-45.6,11.7c-0.7,0.1-1.4,0.3-2.1,0.9
	c1.6,0.3,3.2,0.7,4.8,1c14.8,3,29.4,6.9,43.6,12.1c6.6,2.4,12.2,6.6,16.6,11.8c3,3.6,4.9,8.5,6.3,13.1c2,6.1,1.7,12.6-0.2,18.8
	c-2,6.5-4.9,12.4-10.1,17.1c-8.3,7.5-17.8,12.8-28.8,16.4c3.5,1.5,6.5,2.9,9.5,4.2c7.9,3.6,14.7,8.7,20.3,15.1
	c5.6,6.4,8.6,14.2,9.5,22.8c0.8,8.4-0.4,16.2-4.2,23.7c-2.8,5.5-5.8,10.8-10.6,14.9c-9.6,8.1-20,14.8-31.8,19.5
	c-16.5,6.6-33.5,11.3-50.9,14.1c-12.6,2-25.3,3.2-37.9,4.8c-1.7,0.2-2.9-0.1-4.2-1.5c-5.5-6.1-6.3-13.5-6.4-21.2
	c-0.1-5.8,0.5-11.4,2.2-16.9c1.7-5.3,4.4-10.2,8.2-14.4c0.5-0.5,1.5-0.7,2.3-0.8c14-2.2,28.1-3.9,42-6.5c14.3-2.8,28.2-7,41.4-13.1
	c0.3-0.1,0.6-0.4,1.6-0.9c-5.8-2.2-11-4.4-16.4-6.2c-13.4-4.7-27.4-7.3-41.4-9.4c-17.6-2.7-35.3-4.4-53.1-4.8
	c-6.8-0.1-13.6,0.4-20.4,0.7c-4.6,0.2-9.2-0.2-13.3-1.9c-3.1-1.3-5.9-3.9-8.1-6.5c-3.6-4.4-5.2-9.9-5.3-15.5
	c-0.1-3.7,0.4-7.6,1.6-11.2c1.7-5.2,4.8-9.7,9.6-12.8c0.8-0.5,1.5-1,2.4-1.3c7.5-2.7,15.3-3.9,23.1-5c31.1-4.3,62.2-8.6,92.9-14.9
	c0.6-0.1,1.2-0.3,1.9-0.9c-3-0.6-5.9-1.3-8.9-1.8c-21.7-3.5-43.4-6.8-65.1-10.4c-11-1.8-22-3.8-33-5.9c-3.3-0.6-6.5-1.5-9.6-2.8
	c-5.1-2.2-9.1-5.8-12-10.8c-2.6-4.6-3.8-9.6-4.1-14.6c-0.2-4.4,0.4-8.9,2.3-13c0.1-0.1,0.1-0.2,0.2-0.4c4-9.6,11.5-15.2,21.1-18.4
	C46,109,62.7,105,79.7,101.8c0.7-0.1,1.4-0.3,2.1-0.4C81.8,101.3,81.8,101.2,81.8,101.1z"/>
</svg>
