<?xml version="1.0" encoding="utf-8"?>
<!-- Generator: Adobe Illustrator 26.0.1, SVG Export Plug-In . SVG Version: 6.00 Build 0)  -->
<svg version="1.1" id="레이어_1" xmlns="http://www.w3.org/2000/svg" xmlns:xlink="http://www.w3.org/1999/xlink" x="0px"
	 y="0px" viewBox="0 0 300 250" style="enable-background:new 0 0 300 250;" xml:space="preserve">
<style type="text/css">
	.st0{fill:#474747;}
</style>
<path class="st0" d="M104.53,243.19c-0.19,0-0.38,0-0.57,0c-0.33-0.23-0.64-0.54-1.01-0.67c-3.37-1.26-6.74-2.5-10.12-3.74
	c-8.84-3.26-17.68-6.52-26.51-9.79c-1.01-0.38-2.16-0.66-2.94-1.34c-2.78-2.41-5.45-4.96-8.13-7.49c-2.72-2.57-5.39-5.2-8.09-7.79
	c-1.67-1.6-3.28-3.29-5.08-4.75c-3.34-2.7-6-5.98-8.58-9.36c-3.06-3.99-6.18-7.93-9.22-11.93c-1.7-2.24-3.6-4.4-4.85-6.88
	c-3.19-6.32-6.09-12.79-9.05-19.23c-0.94-2.04-2.17-4.12-2.43-6.28c-1.18-9.7-2.06-19.45-3.06-29.17c-0.08-0.81-0.28-1.6-0.43-2.4
	c0-0.47,0-0.95,0-1.42c0.15-0.47,0.36-0.92,0.43-1.4c1.48-9.09,2.93-18.19,4.43-27.28c0.39-2.36,0.58-4.85,1.51-7.01
	c2.13-4.94,4.49-9.8,7.09-14.51c3.77-6.83,5.98-14.53,11.49-20.42c3.17-3.39,6.07-7.04,9.08-10.58c2.63-3.08,5.22-6.2,7.89-9.25
	c1.24-1.41,2.44-3.01,3.99-3.97c8.77-5.43,17.63-10.71,26.5-15.99c1.22-0.73,2.58-1.5,3.95-1.65c4.7-0.51,9.43-0.76,14.15-1.09
	c7.27-0.52,14.53-1.07,21.8-1.52c2.34-0.14,4.81-0.45,7.03,0.08c14.9,3.56,29.78,7.23,44.62,11.06c5.88,1.52,11.99,2.32,17.52,5.1
	c1.6,0.81,3.25,1.53,4.87,2.3c3.8,1.81,7.83,3.24,11.33,5.51c6.3,4.09,12.42,8.49,18.34,13.11c7.7,6.01,15.88,11.24,24.29,16.16
	c3.66,2.14,7.46,4.08,10.93,6.5c4.93,3.44,9.61,7.22,14.38,10.89c1.6,1.23,3.45,2.32,4.63,3.88c5.22,6.89,10.24,13.92,15.32,20.91
	c0.41,0.56,0.86,1.18,0.98,1.83c1.67,8.59,3.29,17.19,4.89,25.79c0.22,1.19,0.52,2.46,0.33,3.63c-0.6,3.77-1.36,7.53-2.16,11.26
	c-0.58,2.71-0.98,5.53-2.07,8.03c-1.67,3.82-3.86,7.41-5.84,11.1c-0.85,1.57-1.57,3.24-2.65,4.64c-1.38,1.78-3.09,3.31-4.62,4.99
	c-1.43,1.57-2.8,3.2-4.23,4.76c-1.43,1.57-2.76,3.28-4.4,4.59c-3.51,2.8-7.19,5.39-10.79,8.07c-4.42,3.28-8.82,6.56-13.26,9.81
	c-0.29,0.22-0.86,0.29-1.21,0.16c-1.97-0.69-3.89-1.49-5.86-2.18c-5.03-1.78-10.08-3.51-15.13-5.27c-3.41-1.19-6.66-0.31-9.75,1.05
	c-1.08,0.48-1.92,1.68-2.67,2.7c-6.26,8.51-12.64,16.93-17.57,26.33c-0.19,0.37-0.61,0.71-1,0.86c-7.67,2.82-15.34,5.67-23.05,8.36
	c-3.54,1.23-7.13,2.5-10.81,3.12c-7.87,1.32-15.82,2.23-23.73,3.31c-8.05,1.1-16.11,2.2-24.16,3.33
	C109.01,242.38,106.77,242.82,104.53,243.19z M188.48,171.67c1-4.22-0.15-8.11-1.46-11.88c-1.41-4.05-3.46-7.84-6.08-11.27
	c-3.59-4.7-7.25-9.36-10.95-13.97c-1.31-1.63-2.72-1.97-4.23-1.35c-6.16,2.54-12.16,5.37-17.51,9.43c-2.47,1.88-3.02,3.51-1.57,5.94
	c0.41,0.69,1.18,1.18,1.78,1.76c2.09,1.99,3.96,4.3,6.32,5.9c6.44,4.38,12.6,9.26,20.05,11.97c2.17,0.79,4.18,2.08,6.39,2.64
	C183.54,171.44,186,171.42,188.48,171.67z"/>
</svg>
