<?xml version="1.0" encoding="utf-8"?>
<!-- Generator: Adobe Illustrator 25.4.1, SVG Export Plug-In . SVG Version: 6.00 Build 0)  -->
<svg version="1.1" id="레이어_1" xmlns="http://www.w3.org/2000/svg" xmlns:xlink="http://www.w3.org/1999/xlink" x="0px"
	 y="0px" viewBox="0 0 300 280" style="enable-background:new 0 0 300 280;" xml:space="preserve">
<style type="text/css">
	.st0{fill:none;stroke:#FF9345;stroke-width:2;stroke-miterlimit:10;}
</style>
<path class="st0" d="M284.3,82.8c4.2-7.8,2.8-22.6-10-23.9c-17.7-5.9-16.9,24.6-25.8,11c-12.1-2.3,3.2-9.3-0.1-19.5
	c-1.5-10.1-14.7-14.1-22.4-7.9c1.6-30.5-24.5-14.5-29.3-11.2C184.9,7.2,172.9,34,160.6,7.7c-9-7-21.8-1.2-23.1,9.8
	c-10-13.8-29.7,1.2-27,15.4c-11.1-7.6-24.1,0.5-23.3,13.3c-16.9-10.1-4.8,0.2,0.8-17.7c2.8-20.2-28-20.6-29-0.9
	c0.8,5-7.9-1.3-11.4,0.9C38,27.8,36.3,43.1,33.3,40.8c-21-12.2-34.3,16.7-11.4,23.7c-7.4,2.7-15.7,14.4-7.6,23
	c3.5,4.5-28.3,12.4-2.5,29.9c-8.9,1.7-11.3,11.4-9,18.7c25.7,14.9,13.3-4.9,16.4,23.7c3.7,7.4,13.5,4.7,18.8,2.2
	c-10.8,21,16.5,16.6,8.8,21.4c-14.4,16.7,13.8,19.7-1.7,27.6c-10.8-47.9-46.9,25.4-6.6,11.4c8.6-11.2,2,5.3,15.1,8.9
	C68,238,72.1,219.9,71,230.6c0.9,13.5,23.4,22.9,26.6,5.9c-1.7-11.4,1-5,8.9-2.6c-19.9,11,0.4,35.5,16.9,23.5c5.1-4,3.4-6.8,4.7,1.8
	c7.4,20.2,19.4-3.1,27.1,14c36,14.9,19.2-53.5-5.2-21.6c0.6-7.8-9.1-13.1-10.9-15.6c11-7.3,2.9-18.1,9-18.1
	c11.9-5-3.4,14.4,4.8,17.6c8.3,10.2,14.8-6.4,17.1,0.7c11.2,21.6,40.4-6.7,21.6-20c-12.6-6.3-14.3,5-20.6-7.3
	c-16.5-2.6-1.6-1.9-9.9-14.3c-8.5-2.1-4.2-10.3,1.3-3.9c2.7,2.9,11.3-1.7,10.9,1.1c-12,25.3,41.5,25.1,25.8-0.5
	c-2.1-3.5,18,0.3,17-12.8c6.6,0.1,17.3,8.4,24.2-2.5c4.3-6.2,2.8-15.4-3.8-19.5c17.9-3.7,16.4-28.3-1.5-32.1
	c11.3-10.8,3.1-7,11.7,1.9c10.6,8.4,29.1-2.4,26.5-15.7C294.6,121.6,311.4,84,284.3,82.8z M229.1,71.3c3.4-0.2-2,3.3-2.5,5
	C224.4,72.9,222.5,67.4,229.1,71.3z M209.4,55.1c2.8,1.2,10.9-5.3,9.4-1.5c0.8,18.1-3.1-1.2-12.9,3.2c-1.2,2-3.1,2-3.6-0.4
	C197.6,49.9,205.8,56.5,209.4,55.1z M191.6,45.7c4.5-5.4,3.2,0.1,5.8,4.4C196.7,49.5,188.8,47.6,191.6,45.7z M113.2,89.2
	c-0.7,4.7,0.4,18.2-4.2,22.7c-4.1,1.9,0.1-4.3,0.6-5.8c-1.6-9.2-11.6,0-7.9-8.7C98.6,86,106.3,94.7,113.2,89.2z M68.9,153.1
	c-2.8,2.6-3.1,6.8-5.3,9.4C61.5,162.3,66.5,150.5,68.9,153.1z M57,112.4c-7.3-7.3-1.1-3.4,3.8-7.3C60.2,111.4,61,132,57,112.4z
	 M89,82.1c1.2-0.8,2.3-6.6,3.6-3.5c3.2,11.5,6.6,7.4-5.6,7.1C82.8,87.6,87.3,82.5,89,82.1z M134.1,125c-1.3,0.6-3.2,2.5-4.5,1.7
	C129.4,125,132.9,125.3,134.1,125z M145,162.1c-4.8-6.7-0.5-18.1,2.3-5.6C150.7,161,151,161,145,162.1z M143.8,100.1
	c-9.7,5.1-8.2-7.8-3.7-4C140.3,98,144.9,98.4,143.8,100.1z M134.2,85c-5.1-8.5-17.9,1.4-16.2-2.9c1.9-17.2,3.4,3.4,16.3-2.6
	C140.1,74.5,136.4,88,134.2,85z M85.1,66.1c10.7-6-0.5-17.3,13.3-6.4c1.7,0.4,2.9,1.2,0.6,1.8c-9.1,4.6-2,11.8-13.5,6.1
	C83.1,68.3,83.6,67.1,85.1,66.1z M68.7,41.7c0.5,1.5-1.6,0.3-2.4,1.3C64.4,41.9,67.2,39.8,68.7,41.7z M27.7,138
	c11.2-15.3-9.7-20.6-5.1-22.5c12.1-6.6,6.7-15.4,5.3-22.9c18.8-1,15.8-23.1,0.9-27.4c4.6,0,7.9-3.6,9.9-7.2c1.8-12.9,7.3,1.6,21-6.3
	c-2,9.3,6.2,17.3,15.5,17.3C78,69.1,52.3,85,69.7,89.5c2.7,0.1,12.3-2,5.3,1.6c-1.3,3.8-0.6,8.4-6.3,7.5c-7.1,4.6,1.6-9.2-6.6-13.3
	c-8-9.6-24-2.7-23.5,10c5.1,14.3,3.2,5.1-5.2,13.7c-10.3,13.2,7.3,25.7,19.7,22.1C48,139.7,36.7,137.7,27.7,138z M72.9,222.4
	c-1.2,1.2-1,1.3-1.1-0.4c2.2-7.1-8.5-14.6-11-15.5c7,0,14.7-13.9,10.9,0.5C70.5,213.7,78,217.7,72.9,222.4z M78.8,149.6
	c-2.8-1.1-7.7,3.2-8.3,1c2.4-1.9,4.8-10.6,7.7-4.7C79.1,148.2,84.4,150.5,78.8,149.6z M92.6,220.8c-0.6,0.8-1.3-0.8-0.2-1.1
	C93,219.6,92.7,220.4,92.6,220.8z M87.3,178.8c-9.4,0.7,4.7-4.6,4.1-11.5c2.6-6.6-10.1-17.2-1.5-14.7c21.3-3.9,7.5,4.3,2.8,14.8
	C88.8,181.4,99.3,178.9,87.3,178.8z M94.7,194.6c1.9-0.5,2.2-7.3,3.7-5.3c2.8,0.4-0.3,16-1.4,10.3C96.8,197.7,93.7,196.4,94.7,194.6
	z M98.2,214.5c-1.9-2.9,0-13.8,3.9-3.8C110,217.9,100.7,211.7,98.2,214.5z M131.4,240.2c-4.9,8.5-2.2,5.7-6.6-1
	c-2.7-2.9-12.6-8-6-9.4C117.8,238.4,135,238.1,131.4,240.2z M135.6,202.3c-1.3,11.3-5.9,2.7-12.2,10c-7.2,7.8-2.2,16.4-10.6,3.5
	c25.2-2.9,4.2-30.3,14.2-21.3C132.4,199.2,142.1,192.8,135.6,202.3z M161.6,99.5c-2.4,19.4,20,13.1,9.1,20.3
	c-2.2,0.8-5.4,10.8-5.4,5.7c-4.1-6.3-4.2-12-7-18.9C152,101.1,154.7,101.7,161.6,99.5z M156.9,167.8c-3.6-4.7,5.1-2.4,7.1-2.4
	C162.1,166.8,158.1,173.4,156.9,167.8z M163.5,136.3c0.5-0.9,1.3-5.5,2.4-3.7C166.9,135.3,167.3,139.8,163.5,136.3z M175,164.8
	c-1,0-8.1-1-4.4-1.9C174.3,158.9,175.7,159.1,175,164.8z M178,144.2c5.3,0,3.6,1.8,0.4,4.5C177.2,149.9,175.2,143.9,178,144.2z
	 M190.7,117.9c-0.3,3.5-2.9-0.2-4.5-0.9c-2.1-0.9-8.2-1.3-2.8-3.4c7.9-1.6,8.2-19.5,10.4-13.9C206.7,106.9,188.5,104.7,190.7,117.9z
	 M182,175.9c1.7-8.5,5.4,7,7.8,9.1C175,185.1,180.9,189.1,182,175.9z M192.9,162.3c0.8-6.1,3-2.8,6.8-0.7
	C198.3,161.7,194,163.5,192.9,162.3z M199.2,134c-5.4,2.1-6.7,14-11.9,7.3c4.6-2.4,4.5-11.3,6.4-13.6
	C194.7,129.9,203.6,132.3,199.2,134z M189.7,90.2c-13.7-15.1-24.3,8.1-25-5.7c-9.3-22.1-26.9-0.9-21-17.2c-1.4-7.7,8.1,6.5,12.9,4.3
	c36.7-7.5-3.8-45.2-17.2-16.7c-9.9-13.2-23.9-0.5-25.1,9.7c-10.1-6.6-0.2-3.8,3.4-12.3c-1.8-23,13.6,1.7,22.8-25.8
	c4.9,7.6,15.9,11,23.2,4.5c-1.8,8.7,4.9,17.9,14,19c-4.6,9.6-6.5,28.9,13.8,28.5c12.2,1,10.3-17,16.6-0.9
	C199.7,74.7,189.4,80.9,189.7,90.2z M211.4,165.7c1.1,3.9-7.6-2.5-5.9-3.1C211.9,162.7,212.9,157,211.4,165.7z M221.7,153.2
	c-7.4,6.2-1.4-9-0.6-6.3C223.4,151.1,229.9,153.4,221.7,153.2z M220.9,131.6c-1.8,0.9-1.5,8.9-3.5,5.6c-12-9.1-0.3-3.2,0.9-15.8
	C227.5,128.1,228.5,122.9,220.9,131.6z M217.8,102.4c-3.3,6.2-2.2,10.9-8.3,2.7c6.7-1.7,12.8-7.8,11.1-15.5c-3.3-9.8-1.7-2,4.2-7
	C236.6,103.5,229.9,86.7,217.8,102.4z M266.1,101.5c-10.7-4.8-23.2,10.2-22.1,5.9c0.8-3.3-4.4-8.5-2.5-9.7c7,0.9,16.6-4.8,15.8-12.7
	C270.6,92.9,269.4,83.7,266.1,101.5z"/>
</svg>
