<?xml version="1.0" encoding="utf-8"?>
<!-- Generator: Adobe Illustrator 24.3.0, SVG Export Plug-In . SVG Version: 6.00 Build 0)  -->
<svg version="1.1" id="레이어_1" xmlns="http://www.w3.org/2000/svg" xmlns:xlink="http://www.w3.org/1999/xlink" x="0px"
	 y="0px" viewBox="0 0 60 60" style="enable-background:new 0 0 60 60;" xml:space="preserve">
<g>
	<path d="M47.8,8.7l-27.9,7.8c-0.3,0.1-0.5,0.3-0.6,0.5l-9.2,25.2c-0.1,0.2-0.1,0.5,0.1,0.7c0.1,0.2,0.3,0.4,0.6,0.4l38.3,8.2
		c0.1,0,0.1,0,0.2,0c0.2,0,0.4-0.1,0.5-0.2c0.2-0.2,0.3-0.4,0.3-0.7L48.9,9.5c0-0.3-0.1-0.5-0.3-0.7c-0.1-0.1-0.3-0.2-0.5-0.2
		C48,8.7,47.9,8.7,47.8,8.7"/>
	<polygon points="13.1,8.1 18.7,8.1 18.7,9.9 15.2,9.9 15.2,10.6 18.4,10.6 18.4,12.2 15.2,12.2 15.2,12.9 18.7,12.9 18.7,14.7 
		13.1,14.7 	"/>
	<polygon points="50,0 52,0 53.9,2.9 53.9,0 56,0 56,6.6 54.1,6.6 52.1,3.5 52.1,6.6 50,6.6 	"/>
	<polygon points="4.5,46 2.8,46 2.8,44.2 8.4,44.2 8.4,46 6.7,46 6.7,50.8 4.5,50.8 	"/>
	<path d="M53.4,58.1c0.5,0,0.9-0.1,1.2-0.3c0.3-0.2,0.4-0.6,0.4-1v0c0-0.5-0.1-0.8-0.4-1c-0.3-0.2-0.7-0.3-1.2-0.3h-0.4v2.7H53.4z
		 M50.9,53.4h2.5c0.6,0,1.2,0.1,1.7,0.2c0.5,0.2,0.9,0.4,1.2,0.7c0.3,0.3,0.6,0.6,0.7,1c0.2,0.4,0.2,0.8,0.2,1.3v0
		c0,0.5-0.1,0.9-0.2,1.3c-0.2,0.4-0.4,0.8-0.7,1.1c-0.3,0.3-0.7,0.5-1.2,0.7c-0.5,0.2-1.1,0.2-1.7,0.2h-2.4V53.4z"/>
</g>
</svg>
