<?xml version="1.0" encoding="utf-8"?>
<!-- Generator: Adobe Illustrator 26.0.1, SVG Export Plug-In . SVG Version: 6.00 Build 0)  -->
<svg version="1.1" id="레이어_1" xmlns="http://www.w3.org/2000/svg" xmlns:xlink="http://www.w3.org/1999/xlink" x="0px"
	 y="0px" viewBox="0 0 140 50" style="enable-background:new 0 0 140 50;" xml:space="preserve">
<style type="text/css">
	.st0{fill:#151616;}
</style>
<g>
	<path class="st0" d="M46.43,8.46l-9.28,31.26h-5.84l-6.74-20.8l-0.64-2.53l-0.72,2.51l-7.14,20.81h-5.58L1,8.46h4.49l7.36,24.14
		l0.78,3.07l0.8-2.99L22.5,8.51h3.25l7.6,24.09l0.9,3.28l0.88-3.19l7.23-24.22L46.43,8.46L46.43,8.46z"/>
	<path class="st0" d="M57.97,40.41c-7.28,0-11.04-4.89-11.04-12.74c0-7.94,3.95-12.5,10.98-12.5c7.01,0,10.98,4.59,10.98,12.5
		C68.9,35.53,65.14,40.41,57.97,40.41L57.97,40.41z M57.93,36.76c4.34,0,6.93-3.31,6.93-9.07c0-5.72-2.64-8.88-6.94-8.88
		c-4.32,0-6.96,3.13-6.96,8.88C50.97,33.45,53.55,36.76,57.93,36.76L57.93,36.76z"/>
	<path class="st0" d="M84.44,15.22c2.14,0,3.64,1.22,4.47,2.78l-3.09,2.28c-0.6-0.85-1.36-1.33-2.34-1.33
		c-2.95,0-5.24,4.63-5.24,10.36v10.42H74.2v-24h3.6l0.29,4.8C79.4,16.71,82.16,15.22,84.44,15.22L84.44,15.22z"/>
	<path class="st0" d="M100.1,28.46l-4.16,4.58v6.7h-4.03V4.36h4.03v22.23l-0.21,2.09l11.44-12.89h4.9l-9.1,10.03l9.53,13.92h-4.66
		L100.1,28.46z"/>
	<path class="st0" d="M122.29,40.41c-5.17,0-8.02-2.5-9.45-5.84l3.49-1.63c1.17,2.39,2.96,4.01,6.2,4.01c2.98,0,4.8-1.3,4.8-3.31
		c0-1.92-1.63-2.98-4.94-4.08l-2.45-0.82c-4.34-1.44-6.05-3.36-6.05-6.77c0-4.27,3.79-6.82,8.45-6.82c4.24,0,7.15,1.69,8.87,5.56
		l-3.36,1.6c-1.2-2.26-2.85-3.76-5.76-3.76c-2.74,0-4.22,1.54-4.22,3.22c0,1.71,0.98,2.57,4.13,3.6l2.16,0.72
		c4.61,1.54,7.2,3.55,7.2,7.25C131.37,37.87,127.53,40.41,122.29,40.41L122.29,40.41z"/>
</g>
</svg>
