<?xml version="1.0" encoding="utf-8"?>
<!-- Generator: Adobe Illustrator 26.0.1, SVG Export Plug-In . SVG Version: 6.00 Build 0)  -->
<svg version="1.1" id="레이어_1" xmlns="http://www.w3.org/2000/svg" xmlns:xlink="http://www.w3.org/1999/xlink" x="0px"
	 y="0px" viewBox="0 0 140 50" style="enable-background:new 0 0 140 50;" xml:space="preserve">
<style type="text/css">
	.st0{fill:#151616;}
</style>
<g>
	<path class="st0" d="M29.53,23.07v16.9h-3.31l-0.64-4.39c-2.59,3.9-6.91,5.04-10.26,5.04c-8.51,0-14.79-6.15-14.79-16.15
		c0-9.69,5.61-16.41,15.8-16.41c6.96,0,11.1,3.21,13.04,8.37l-3.98,1.46c-1.56-3.46-4.85-5.94-9.37-5.94
		c-5.54,0-11.1,3.68-11.1,12.46c0,7.82,4.72,12.31,11.19,12.31c5.23,0,8.92-3.8,9.55-10.1H11.73v-3.55
		C11.73,23.07,29.53,23.07,29.53,23.07z"/>
	<path class="st0" d="M55.2,15.97v24h-3.61l-0.28-4.4c-1.59,3.33-4.61,5.08-8.01,5.08c-5.28,0-7.44-4.18-7.44-9.98v-14.7h4.03v14.45
		c0,4.7,1.58,6.58,4.42,6.58c4.03,0,6.86-3.84,6.86-9.6V15.97H55.2z"/>
	<path class="st0" d="M81.74,33.94c-1.42,4.41-5.06,6.7-10.03,6.7c-6.91,0-11.23-4.46-11.23-12.53c0-7.68,3.94-12.72,11.04-12.72
		c6.67,0,9.98,4.46,9.98,13.58H64.45c0.29,4.98,2.93,8.21,7.31,8.21c2.99,0,5.34-1.5,6.34-4.41L81.74,33.94z M71.32,18.9
		c-4.05,0-6.12,2.92-6.71,6.67h12.66C76.85,20.89,74.65,18.9,71.32,18.9L71.32,18.9z"/>
	<path class="st0" d="M94.55,40.64c-5.17,0-8.02-2.5-9.45-5.84l3.49-1.63c1.17,2.39,2.96,4.01,6.2,4.01c2.98,0,4.8-1.3,4.8-3.31
		c0-1.92-1.63-2.98-4.94-4.08l-2.45-0.82c-4.34-1.44-6.05-3.36-6.05-6.77c0-4.27,3.79-6.82,8.45-6.82c4.24,0,7.15,1.69,8.87,5.56
		l-3.36,1.6c-1.2-2.26-2.85-3.76-5.76-3.76c-2.74,0-4.22,1.54-4.22,3.22c0,1.71,0.98,2.57,4.13,3.6l2.16,0.72
		c4.61,1.54,7.2,3.55,7.2,7.25C103.63,38.1,99.79,40.64,94.55,40.64L94.55,40.64z"/>
	<path class="st0" d="M119.38,39.79c-1.4,0.56-2.89,0.85-4.23,0.85c-2.98,0-5.76-1.39-5.76-6.19V19.38h-3.74v-3.41h3.93l0.48-7.25
		h3.36v7.25h5.14v3.41h-5.14v13.66c0,2.64,0.67,3.96,2.58,3.96c0.72,0,1.5-0.13,2.55-0.48L119.38,39.79z"/>
</g>
</svg>
