<?xml version="1.0" encoding="utf-8"?>
<!-- Generator: Adobe Illustrator 26.0.1, SVG Export Plug-In . SVG Version: 6.00 Build 0)  -->
<svg version="1.1" id="레이어_1" xmlns="http://www.w3.org/2000/svg" xmlns:xlink="http://www.w3.org/1999/xlink" x="0px"
	 y="0px" viewBox="0 0 140 50" style="enable-background:new 0 0 140 50;" xml:space="preserve">
<style type="text/css">
	.st0{fill:#151616;}
</style>
<g>
	<path class="st0" d="M19.34,36.06v3.87H2.04v-3.87h6.44V12.55H2.04V8.68h17.31v3.87H12.9v23.51H19.34z"/>
	<path class="st0" d="M36.5,15.35c4.8,0,7.44,3.46,7.44,9.79v14.79h-4.03V25.62c0-4.7-1.58-6.62-4.46-6.62
		c-4.32,0-6.82,4.42-6.82,8.69v12.24H24.6v-24h3.6l0.28,4.29C30.08,17.04,33.25,15.35,36.5,15.35L36.5,15.35z"/>
	<path class="st0" d="M70.09,4.55v35.38h-3.6l-0.22-3.42c-1.48,2.58-3.98,4.09-7.55,4.09c-6.77,0-9.84-5.3-9.84-12.48
		c0-8.05,3.84-12.77,9.65-12.77c3.34,0,6.26,1.49,7.62,3.51l-0.09-1.14V4.55H70.09z M59.49,37.09c4.36,0,6.49-3.4,6.66-8.51v-0.75
		l0.01-0.25c-0.08-5.46-2.29-8.77-6.77-8.77c-4.39,0-6.58,4.08-6.58,9.07C52.82,32.94,54.6,37.1,59.49,37.09L59.49,37.09z"/>
	<path class="st0" d="M96.64,33.9c-1.42,4.41-5.06,6.7-10.03,6.7c-6.91,0-11.23-4.46-11.23-12.53c0-7.68,3.94-12.72,11.04-12.72
		c6.67,0,9.98,4.46,9.98,13.58H79.35c0.29,4.98,2.93,8.21,7.31,8.21c2.99,0,5.34-1.5,6.34-4.41L96.64,33.9z M86.23,18.86
		c-4.05,0-6.12,2.92-6.71,6.67h12.66C91.76,20.85,89.56,18.86,86.23,18.86L86.23,18.86z"/>
	<path class="st0" d="M112.72,27.76l8.07,12.16h-4.56l-4.39-6.63l-1.71-3.03l-1.79,3.03l-4.58,6.63h-4.37l8.35-12.17l-7.92-11.83
		h4.56l5.11,7.61l0.87,1.57l0.87-1.54l5.19-7.63h4.37L112.72,27.76z"/>
</g>
</svg>
