<?xml version="1.0" encoding="utf-8"?>
<!-- Generator: Adobe Illustrator 26.0.1, SVG Export Plug-In . SVG Version: 6.00 Build 0)  -->
<svg version="1.1" id="레이어_1" xmlns="http://www.w3.org/2000/svg" xmlns:xlink="http://www.w3.org/1999/xlink" x="0px"
	 y="0px" viewBox="0 0 140 50" style="enable-background:new 0 0 140 50;" xml:space="preserve">
<style type="text/css">
	.st0{fill:#151616;}
</style>
<g>
	<path class="st0" d="M14.02,25.97H8.01v13.1H3.63V7.82h12.79c7,0,11.29,3.6,11.29,9.1c0,4.65-3.02,8.03-8.58,8.79l9.79,13.36h-5.35
		L14.02,25.97z M8.01,22.18h6.97c5.84,0,8.24-1.95,8.24-5.26c0-3.41-2.56-5.26-8.5-5.26H8.01V22.18z"/>
	<path class="st0" d="M53.5,33.03c-1.42,4.41-5.06,6.7-10.03,6.7c-6.91,0-11.23-4.46-11.23-12.53c0-7.68,3.94-12.72,11.04-12.72
		c6.67,0,9.98,4.46,9.98,13.58H36.21c0.29,4.98,2.93,8.21,7.31,8.21c2.99,0,5.34-1.5,6.34-4.41L53.5,33.03z M43.08,17.99
		c-4.05,0-6.12,2.92-6.71,6.67h12.66C48.61,19.98,46.41,17.99,43.08,17.99L43.08,17.99z"/>
	<path class="st0" d="M68.43,39.74c-6.53,0-10.85-4.4-10.85-12.58s4.27-12.67,10.85-12.67c4.85,0,7.83,2.4,9.23,6.88l-3.71,1.17
		c-0.88-3.1-2.95-4.65-5.71-4.65c-3.98,0-6.53,3.35-6.53,9.13c0,5.82,2.59,9.17,6.67,9.17c2.75,0,4.9-1.53,5.97-4.31l3.55,1.17
		C76.35,37.5,73.06,39.74,68.43,39.74L68.43,39.74z"/>
	<path class="st0" d="M82.51,4.88h4.78v5.3h-4.78V4.88z M82.92,15.06h4.03v24h-4.03V15.06z"/>
	<path class="st0" d="M105.05,14.49c6.77,0,9.84,5.3,9.84,12.48c0,8.05-3.84,12.77-9.65,12.77c-3.32,0-6.22-1.47-7.59-3.48l0.06,0.8
		v12.95h-4.03V15.06h3.6l0.22,3.52C98.98,16,101.48,14.49,105.05,14.49L105.05,14.49z M104.38,36.28c4.39,0,6.58-4.08,6.58-9.07
		c0-5.06-1.78-9.22-6.67-9.22c-4.37,0-6.5,3.42-6.66,8.55v0.71l-0.01,0.29C97.7,32.99,99.91,36.28,104.38,36.28L104.38,36.28z"/>
	<path class="st0" d="M139.99,33.03c-1.42,4.41-5.06,6.7-10.03,6.7c-6.91,0-11.23-4.46-11.23-12.53c0-7.68,3.94-12.72,11.04-12.72
		c6.67,0,9.98,4.46,9.98,13.58H122.7c0.29,4.98,2.93,8.21,7.31,8.21c2.99,0,5.34-1.5,6.34-4.41L139.99,33.03z M129.58,17.99
		c-4.05,0-6.12,2.92-6.71,6.67h12.66C135.11,19.98,132.9,17.99,129.58,17.99L129.58,17.99z"/>
</g>
</svg>
